# xmcd
#
# Track frame offsets:
#	182
#	12745
#	25182
#	38825
#	54005
#	71545
#	83097
#	96062
#	107007
#	117877
#	131737
#	144800
#
# Disc length: 2052
#
# Revision: 1
# Processed by: cddbd v1.5.1PL0 Copyright (c) Steve Scherf et al.
# Submitted via: dBpowerAMP V4.0
# Normalized: r0:DSETVAR1,TDELIM( - )
#
DISCID=9308020c
DTITLE=Various Artist - Country Gospel Gold
DYEAR=1997
DGENRE=Gospel
TTITLE0=Hank Williams Sr - Wealth Won't Save Your Soul
TTITLE1=Johnny Cash - In the sweet by and by
TTITLE2=The Statler Brothers - How Great Thou Art
TTITLE3=Tom T. Hall - Me and Jesus
TTITLE4=Tennessee Ernie Ford - What a friend we have in Jesus
TTITLE5=George Jones - My Lord has called me
TTITLE6=Hank Williams Sr. - House of Gold
TTITLE7=Roy Acuff - Hold to God's Unchanging Hands
TTITLE8=The Statler Brothers - The Lord's Prayer
TTITLE9=Jerry Lee Lewis - He Looked Beyond My Fault
TTITLE10=Hank Williams Jr. - Jesus Don't Give up on Me
TTITLE11=George Jones - Jesus Wants Me
EXTD=
EXTT0=
EXTT1=
EXTT2=
EXTT3=
EXTT4=
EXTT5=
EXTT6=
EXTT7=
EXTT8=
EXTT9=
EXTT10=
EXTT11=
PLAYORDER=
